<mxfile host="app.diagrams.net" agent="Mozilla/5.0 (Windows NT 10.0; Win64; x64) AppleWebKit/537.36 (KHTML, like Gecko) Chrome/135.0.0.0 Safari/537.36 Edg/135.0.0.0" version="27.0.1">
  <diagram id="R2lEEEUBdFMjLlhIrx00" name="Page-1">
    <mxGraphModel dx="3697" dy="2451" grid="1" gridSize="10" guides="1" tooltips="1" connect="1" arrows="1" fold="1" page="1" pageScale="1" pageWidth="850" pageHeight="1100" math="0" shadow="0" extFonts="Permanent Marker^https://fonts.googleapis.com/css?family=Permanent+Marker">
      <root>
        <mxCell id="0" />
        <mxCell id="1" parent="0" />
        <mxCell id="jlbT6_GZEte665xSYFNF-2" value="Utilizador" style="whiteSpace=wrap;html=1;align=center;" vertex="1" parent="1">
          <mxGeometry x="440" y="119" width="100" height="40" as="geometry" />
        </mxCell>
        <mxCell id="jlbT6_GZEte665xSYFNF-3" value="&lt;div&gt;&lt;span style=&quot;background-color: transparent; color: light-dark(rgb(0, 0, 0), rgb(255, 255, 255));&quot;&gt;&lt;br&gt;&lt;/span&gt;&lt;/div&gt;&lt;div&gt;&lt;span style=&quot;background-color: transparent; color: light-dark(rgb(0, 0, 0), rgb(255, 255, 255));&quot;&gt;IS-A&lt;/span&gt;&lt;/div&gt;" style="triangle;whiteSpace=wrap;html=1;rotation=-90;textDirection=vertical-rl;" vertex="1" parent="1">
          <mxGeometry x="460" y="190" width="60" height="80" as="geometry" />
        </mxCell>
        <mxCell id="jlbT6_GZEte665xSYFNF-4" value="&lt;b&gt;&lt;font style=&quot;font-size: 10px;&quot;&gt;dijoint&lt;/font&gt;&lt;/b&gt;" style="text;html=1;align=center;verticalAlign=middle;resizable=0;points=[];autosize=1;strokeColor=none;fillColor=none;" vertex="1" parent="1">
          <mxGeometry x="501" y="203" width="50" height="30" as="geometry" />
        </mxCell>
        <mxCell id="jlbT6_GZEte665xSYFNF-6" value="" style="endArrow=none;html=1;rounded=0;exitX=0.5;exitY=1;exitDx=0;exitDy=0;entryX=1;entryY=0.5;entryDx=0;entryDy=0;" edge="1" parent="1" source="jlbT6_GZEte665xSYFNF-2" target="jlbT6_GZEte665xSYFNF-3">
          <mxGeometry relative="1" as="geometry">
            <mxPoint x="460" y="149" as="sourcePoint" />
            <mxPoint x="620" y="149" as="targetPoint" />
          </mxGeometry>
        </mxCell>
        <mxCell id="jlbT6_GZEte665xSYFNF-7" value="Premium" style="whiteSpace=wrap;html=1;align=center;" vertex="1" parent="1">
          <mxGeometry x="370" y="300" width="100" height="40" as="geometry" />
        </mxCell>
        <mxCell id="jlbT6_GZEte665xSYFNF-8" value="Nome" style="ellipse;whiteSpace=wrap;html=1;align=center;" vertex="1" parent="1">
          <mxGeometry x="330" y="20" width="100" height="40" as="geometry" />
        </mxCell>
        <mxCell id="jlbT6_GZEte665xSYFNF-9" value="Utilizador&lt;div&gt;ID&lt;/div&gt;" style="ellipse;whiteSpace=wrap;html=1;align=center;fontStyle=4;" vertex="1" parent="1">
          <mxGeometry x="380" y="-20" width="100" height="40" as="geometry" />
        </mxCell>
        <mxCell id="jlbT6_GZEte665xSYFNF-10" value="Email" style="ellipse;whiteSpace=wrap;html=1;align=center;" vertex="1" parent="1">
          <mxGeometry x="280" y="60" width="100" height="40" as="geometry" />
        </mxCell>
        <mxCell id="jlbT6_GZEte665xSYFNF-11" value="Password" style="ellipse;whiteSpace=wrap;html=1;align=center;" vertex="1" parent="1">
          <mxGeometry x="551" y="20" width="100" height="40" as="geometry" />
        </mxCell>
        <mxCell id="jlbT6_GZEte665xSYFNF-12" value="País de&lt;div&gt;residência&lt;/div&gt;" style="ellipse;whiteSpace=wrap;html=1;align=center;" vertex="1" parent="1">
          <mxGeometry x="600" y="60" width="100" height="40" as="geometry" />
        </mxCell>
        <mxCell id="jlbT6_GZEte665xSYFNF-13" value="IBAN" style="ellipse;whiteSpace=wrap;html=1;align=center;fontStyle=4;" vertex="1" parent="1">
          <mxGeometry x="500" y="-20" width="100" height="40" as="geometry" />
        </mxCell>
        <mxCell id="jlbT6_GZEte665xSYFNF-15" value="" style="endArrow=none;html=1;rounded=0;exitX=0.5;exitY=1;exitDx=0;exitDy=0;entryX=0.5;entryY=0;entryDx=0;entryDy=0;" edge="1" parent="1" source="jlbT6_GZEte665xSYFNF-9" target="jlbT6_GZEte665xSYFNF-2">
          <mxGeometry relative="1" as="geometry">
            <mxPoint x="350" y="170" as="sourcePoint" />
            <mxPoint x="510" y="170" as="targetPoint" />
          </mxGeometry>
        </mxCell>
        <mxCell id="jlbT6_GZEte665xSYFNF-16" value="" style="endArrow=none;html=1;rounded=0;entryX=0.5;entryY=0;entryDx=0;entryDy=0;exitX=0.5;exitY=1;exitDx=0;exitDy=0;" edge="1" parent="1" source="jlbT6_GZEte665xSYFNF-13" target="jlbT6_GZEte665xSYFNF-2">
          <mxGeometry relative="1" as="geometry">
            <mxPoint x="350" y="170" as="sourcePoint" />
            <mxPoint x="510" y="170" as="targetPoint" />
          </mxGeometry>
        </mxCell>
        <mxCell id="jlbT6_GZEte665xSYFNF-17" value="" style="endArrow=none;html=1;rounded=0;exitX=0.5;exitY=1;exitDx=0;exitDy=0;entryX=0.5;entryY=0;entryDx=0;entryDy=0;" edge="1" parent="1" source="jlbT6_GZEte665xSYFNF-8" target="jlbT6_GZEte665xSYFNF-2">
          <mxGeometry relative="1" as="geometry">
            <mxPoint x="350" y="170" as="sourcePoint" />
            <mxPoint x="510" y="170" as="targetPoint" />
          </mxGeometry>
        </mxCell>
        <mxCell id="jlbT6_GZEte665xSYFNF-18" value="" style="endArrow=none;html=1;rounded=0;entryX=0.5;entryY=1;entryDx=0;entryDy=0;exitX=0.5;exitY=0;exitDx=0;exitDy=0;" edge="1" parent="1" source="jlbT6_GZEte665xSYFNF-2" target="jlbT6_GZEte665xSYFNF-11">
          <mxGeometry relative="1" as="geometry">
            <mxPoint x="490" y="100" as="sourcePoint" />
            <mxPoint x="510" y="170" as="targetPoint" />
          </mxGeometry>
        </mxCell>
        <mxCell id="jlbT6_GZEte665xSYFNF-19" value="" style="endArrow=none;html=1;rounded=0;exitX=1;exitY=0.5;exitDx=0;exitDy=0;entryX=0.5;entryY=0;entryDx=0;entryDy=0;" edge="1" parent="1" source="jlbT6_GZEte665xSYFNF-10" target="jlbT6_GZEte665xSYFNF-2">
          <mxGeometry relative="1" as="geometry">
            <mxPoint x="430" y="70" as="sourcePoint" />
            <mxPoint x="590" y="70" as="targetPoint" />
          </mxGeometry>
        </mxCell>
        <mxCell id="jlbT6_GZEte665xSYFNF-20" value="" style="endArrow=none;html=1;rounded=0;entryX=0;entryY=0.5;entryDx=0;entryDy=0;exitX=0.5;exitY=0;exitDx=0;exitDy=0;" edge="1" parent="1" source="jlbT6_GZEte665xSYFNF-2" target="jlbT6_GZEte665xSYFNF-12">
          <mxGeometry relative="1" as="geometry">
            <mxPoint x="430" y="70" as="sourcePoint" />
            <mxPoint x="590" y="70" as="targetPoint" />
          </mxGeometry>
        </mxCell>
        <mxCell id="jlbT6_GZEte665xSYFNF-21" value="Basic" style="whiteSpace=wrap;html=1;align=center;" vertex="1" parent="1">
          <mxGeometry x="510" y="300" width="100" height="40" as="geometry" />
        </mxCell>
        <mxCell id="jlbT6_GZEte665xSYFNF-23" value="" style="endArrow=none;html=1;rounded=0;exitX=0.5;exitY=0;exitDx=0;exitDy=0;entryX=0;entryY=0.25;entryDx=0;entryDy=0;" edge="1" parent="1" source="jlbT6_GZEte665xSYFNF-7" target="jlbT6_GZEte665xSYFNF-3">
          <mxGeometry relative="1" as="geometry">
            <mxPoint x="400" y="200" as="sourcePoint" />
            <mxPoint x="470" y="270" as="targetPoint" />
          </mxGeometry>
        </mxCell>
        <mxCell id="jlbT6_GZEte665xSYFNF-24" value="" style="endArrow=none;html=1;rounded=0;exitX=0;exitY=0.75;exitDx=0;exitDy=0;entryX=0.5;entryY=0;entryDx=0;entryDy=0;" edge="1" parent="1" source="jlbT6_GZEte665xSYFNF-3" target="jlbT6_GZEte665xSYFNF-21">
          <mxGeometry relative="1" as="geometry">
            <mxPoint x="400" y="200" as="sourcePoint" />
            <mxPoint x="560" y="200" as="targetPoint" />
          </mxGeometry>
        </mxCell>
        <mxCell id="jlbT6_GZEte665xSYFNF-25" value="Risco" style="ellipse;whiteSpace=wrap;html=1;align=center;" vertex="1" parent="1">
          <mxGeometry x="540" y="420" width="100" height="40" as="geometry" />
        </mxCell>
        <mxCell id="jlbT6_GZEte665xSYFNF-26" value="Retorno&amp;nbsp;&lt;div&gt;absoluto&lt;/div&gt;" style="ellipse;whiteSpace=wrap;html=1;align=center;" vertex="1" parent="1">
          <mxGeometry x="370" y="540" width="100" height="40" as="geometry" />
        </mxCell>
        <mxCell id="jlbT6_GZEte665xSYFNF-27" value="Indice de&lt;div&gt;Sharpe&lt;/div&gt;" style="ellipse;whiteSpace=wrap;html=1;align=center;" vertex="1" parent="1">
          <mxGeometry x="490" y="460" width="100" height="40" as="geometry" />
        </mxCell>
        <mxCell id="jlbT6_GZEte665xSYFNF-28" value="Beta" style="ellipse;whiteSpace=wrap;html=1;align=center;" vertex="1" parent="1">
          <mxGeometry x="430" y="500" width="100" height="40" as="geometry" />
        </mxCell>
        <mxCell id="jlbT6_GZEte665xSYFNF-30" value="Data atual" style="ellipse;whiteSpace=wrap;html=1;align=center;fontStyle=4;" vertex="1" parent="1">
          <mxGeometry x="310" y="500" width="100" height="40" as="geometry" />
        </mxCell>
        <mxCell id="jlbT6_GZEte665xSYFNF-31" value="" style="endArrow=none;html=1;rounded=0;entryX=0.5;entryY=0;entryDx=0;entryDy=0;exitX=0.5;exitY=1;exitDx=0;exitDy=0;" edge="1" parent="1" source="jlbT6_GZEte665xSYFNF-7" target="jlbT6_GZEte665xSYFNF-27">
          <mxGeometry relative="1" as="geometry">
            <mxPoint x="450" y="240" as="sourcePoint" />
            <mxPoint x="610" y="240" as="targetPoint" />
          </mxGeometry>
        </mxCell>
        <mxCell id="jlbT6_GZEte665xSYFNF-32" value="" style="endArrow=none;html=1;rounded=0;entryX=0.5;entryY=1;entryDx=0;entryDy=0;exitX=0.5;exitY=0;exitDx=0;exitDy=0;" edge="1" parent="1" source="jlbT6_GZEte665xSYFNF-26" target="jlbT6_GZEte665xSYFNF-7">
          <mxGeometry relative="1" as="geometry">
            <mxPoint x="370" y="450" as="sourcePoint" />
            <mxPoint x="610" y="240" as="targetPoint" />
          </mxGeometry>
        </mxCell>
        <mxCell id="jlbT6_GZEte665xSYFNF-33" value="" style="endArrow=none;html=1;rounded=0;exitX=0.5;exitY=0;exitDx=0;exitDy=0;" edge="1" parent="1" source="jlbT6_GZEte665xSYFNF-25">
          <mxGeometry relative="1" as="geometry">
            <mxPoint x="450" y="240" as="sourcePoint" />
            <mxPoint x="420" y="340" as="targetPoint" />
          </mxGeometry>
        </mxCell>
        <mxCell id="jlbT6_GZEte665xSYFNF-35" value="" style="endArrow=none;html=1;rounded=0;exitX=0.5;exitY=0;exitDx=0;exitDy=0;" edge="1" parent="1" source="jlbT6_GZEte665xSYFNF-29">
          <mxGeometry relative="1" as="geometry">
            <mxPoint x="450" y="240" as="sourcePoint" />
            <mxPoint x="420" y="340" as="targetPoint" />
          </mxGeometry>
        </mxCell>
        <mxCell id="jlbT6_GZEte665xSYFNF-36" value="" style="endArrow=none;html=1;rounded=0;exitX=0.5;exitY=0;exitDx=0;exitDy=0;" edge="1" parent="1" source="jlbT6_GZEte665xSYFNF-30">
          <mxGeometry relative="1" as="geometry">
            <mxPoint x="450" y="240" as="sourcePoint" />
            <mxPoint x="420" y="340" as="targetPoint" />
          </mxGeometry>
        </mxCell>
        <mxCell id="jlbT6_GZEte665xSYFNF-37" value="Subscrição&lt;div&gt;data de inicio&lt;/div&gt;" style="ellipse;whiteSpace=wrap;html=1;align=center;" vertex="1" parent="1">
          <mxGeometry x="210" y="420" width="100" height="40" as="geometry" />
        </mxCell>
        <mxCell id="jlbT6_GZEte665xSYFNF-40" value="Valor" style="ellipse;whiteSpace=wrap;html=1;align=center;fontStyle=4;" vertex="1" parent="1">
          <mxGeometry x="160" y="380" width="100" height="40" as="geometry" />
        </mxCell>
        <mxCell id="jlbT6_GZEte665xSYFNF-42" value="" style="endArrow=none;html=1;rounded=0;exitX=0.5;exitY=0;exitDx=0;exitDy=0;" edge="1" parent="1" source="jlbT6_GZEte665xSYFNF-38">
          <mxGeometry relative="1" as="geometry">
            <mxPoint x="220" y="290" as="sourcePoint" />
            <mxPoint x="420" y="340" as="targetPoint" />
          </mxGeometry>
        </mxCell>
        <mxCell id="jlbT6_GZEte665xSYFNF-43" value="" style="endArrow=none;html=1;rounded=0;exitX=0.5;exitY=0;exitDx=0;exitDy=0;" edge="1" parent="1" source="jlbT6_GZEte665xSYFNF-40">
          <mxGeometry relative="1" as="geometry">
            <mxPoint x="220" y="290" as="sourcePoint" />
            <mxPoint x="420" y="340" as="targetPoint" />
          </mxGeometry>
        </mxCell>
        <mxCell id="jlbT6_GZEte665xSYFNF-46" value="realiza" style="shape=rhombus;perimeter=rhombusPerimeter;whiteSpace=wrap;html=1;align=center;" vertex="1" parent="1">
          <mxGeometry x="770" y="109" width="120" height="60" as="geometry" />
        </mxCell>
        <mxCell id="jlbT6_GZEte665xSYFNF-47" value="" style="endArrow=none;html=1;rounded=0;entryX=1;entryY=0.5;entryDx=0;entryDy=0;exitX=0;exitY=0.5;exitDx=0;exitDy=0;" edge="1" parent="1" source="jlbT6_GZEte665xSYFNF-46" target="jlbT6_GZEte665xSYFNF-2">
          <mxGeometry relative="1" as="geometry">
            <mxPoint x="780" y="250" as="sourcePoint" />
            <mxPoint x="850" y="150" as="targetPoint" />
          </mxGeometry>
        </mxCell>
        <mxCell id="jlbT6_GZEte665xSYFNF-48" value="1" style="resizable=0;html=1;whiteSpace=wrap;align=right;verticalAlign=bottom;" connectable="0" vertex="1" parent="jlbT6_GZEte665xSYFNF-47">
          <mxGeometry x="1" relative="1" as="geometry">
            <mxPoint x="9" y="1" as="offset" />
          </mxGeometry>
        </mxCell>
        <mxCell id="jlbT6_GZEte665xSYFNF-29" value="Drawdown máximo" style="ellipse;whiteSpace=wrap;html=1;align=center;" vertex="1" parent="1">
          <mxGeometry x="590" y="380" width="100" height="40" as="geometry" />
        </mxCell>
        <mxCell id="jlbT6_GZEte665xSYFNF-64" value="" style="endArrow=none;html=1;rounded=0;entryX=0.5;entryY=1;entryDx=0;entryDy=0;exitX=0.5;exitY=0;exitDx=0;exitDy=0;" edge="1" parent="1" source="jlbT6_GZEte665xSYFNF-37" target="jlbT6_GZEte665xSYFNF-7">
          <mxGeometry relative="1" as="geometry">
            <mxPoint x="690" y="580" as="sourcePoint" />
            <mxPoint x="370" y="320" as="targetPoint" />
          </mxGeometry>
        </mxCell>
        <mxCell id="jlbT6_GZEte665xSYFNF-38" value="Subscrição&lt;div&gt;data de fim&lt;/div&gt;" style="ellipse;whiteSpace=wrap;html=1;align=center;" vertex="1" parent="1">
          <mxGeometry x="260" y="460" width="100" height="40" as="geometry" />
        </mxCell>
        <mxCell id="jlbT6_GZEte665xSYFNF-65" value="Portefolio" style="whiteSpace=wrap;html=1;align=center;" vertex="1" parent="1">
          <mxGeometry x="-180" y="300" width="100" height="40" as="geometry" />
        </mxCell>
        <mxCell id="jlbT6_GZEte665xSYFNF-66" value="Nome" style="ellipse;whiteSpace=wrap;html=1;align=center;" vertex="1" parent="1">
          <mxGeometry x="-360" y="300" width="100" height="40" as="geometry" />
        </mxCell>
        <mxCell id="jlbT6_GZEte665xSYFNF-67" value="Data de criação" style="ellipse;whiteSpace=wrap;html=1;align=center;" vertex="1" parent="1">
          <mxGeometry x="-360" y="250" width="100" height="40" as="geometry" />
        </mxCell>
        <mxCell id="jlbT6_GZEte665xSYFNF-68" value="Lucro %&lt;div&gt;(atual)&lt;/div&gt;" style="ellipse;whiteSpace=wrap;html=1;align=center;" vertex="1" parent="1">
          <mxGeometry x="-360" y="350" width="100" height="40" as="geometry" />
        </mxCell>
        <mxCell id="jlbT6_GZEte665xSYFNF-69" value="Fundos&lt;div&gt;(atuais)&lt;/div&gt;" style="ellipse;whiteSpace=wrap;html=1;align=center;" vertex="1" parent="1">
          <mxGeometry x="-360" y="400" width="100" height="40" as="geometry" />
        </mxCell>
        <mxCell id="jlbT6_GZEte665xSYFNF-70" value="&lt;span style=&quot;background-color: transparent; color: light-dark(rgb(0, 0, 0), rgb(255, 255, 255));&quot;&gt;Portefolio&lt;/span&gt;&lt;div&gt;&lt;span style=&quot;background-color: transparent; color: light-dark(rgb(0, 0, 0), rgb(255, 255, 255));&quot;&gt;ID&lt;/span&gt;&lt;/div&gt;" style="ellipse;whiteSpace=wrap;html=1;align=center;fontStyle=4;" vertex="1" parent="1">
          <mxGeometry x="-360" y="199" width="100" height="40" as="geometry" />
        </mxCell>
        <mxCell id="jlbT6_GZEte665xSYFNF-72" value="deposita&lt;div&gt;fundos&lt;/div&gt;" style="shape=rhombus;perimeter=rhombusPerimeter;whiteSpace=wrap;html=1;align=center;" vertex="1" parent="1">
          <mxGeometry x="-189.7" y="109" width="120" height="60" as="geometry" />
        </mxCell>
        <mxCell id="jlbT6_GZEte665xSYFNF-73" value="" style="endArrow=none;html=1;rounded=0;exitX=1;exitY=0.5;exitDx=0;exitDy=0;entryX=0;entryY=0.5;entryDx=0;entryDy=0;" edge="1" parent="1" source="jlbT6_GZEte665xSYFNF-69" target="jlbT6_GZEte665xSYFNF-65">
          <mxGeometry relative="1" as="geometry">
            <mxPoint x="150" y="510" as="sourcePoint" />
            <mxPoint x="310" y="510" as="targetPoint" />
          </mxGeometry>
        </mxCell>
        <mxCell id="jlbT6_GZEte665xSYFNF-74" value="" style="endArrow=none;html=1;rounded=0;exitX=1;exitY=0.5;exitDx=0;exitDy=0;entryX=0;entryY=0.5;entryDx=0;entryDy=0;" edge="1" parent="1" source="jlbT6_GZEte665xSYFNF-68" target="jlbT6_GZEte665xSYFNF-65">
          <mxGeometry relative="1" as="geometry">
            <mxPoint x="150" y="510" as="sourcePoint" />
            <mxPoint x="310" y="510" as="targetPoint" />
          </mxGeometry>
        </mxCell>
        <mxCell id="jlbT6_GZEte665xSYFNF-75" value="" style="endArrow=none;html=1;rounded=0;exitX=0;exitY=0.5;exitDx=0;exitDy=0;entryX=1;entryY=0.5;entryDx=0;entryDy=0;" edge="1" parent="1" source="jlbT6_GZEte665xSYFNF-65" target="jlbT6_GZEte665xSYFNF-66">
          <mxGeometry relative="1" as="geometry">
            <mxPoint x="150" y="510" as="sourcePoint" />
            <mxPoint x="-340" y="370" as="targetPoint" />
          </mxGeometry>
        </mxCell>
        <mxCell id="jlbT6_GZEte665xSYFNF-76" value="" style="endArrow=none;html=1;rounded=0;exitX=0;exitY=0.5;exitDx=0;exitDy=0;entryX=1;entryY=0.5;entryDx=0;entryDy=0;" edge="1" parent="1" source="jlbT6_GZEte665xSYFNF-65" target="jlbT6_GZEte665xSYFNF-70">
          <mxGeometry relative="1" as="geometry">
            <mxPoint x="150" y="510" as="sourcePoint" />
            <mxPoint x="310" y="510" as="targetPoint" />
          </mxGeometry>
        </mxCell>
        <mxCell id="jlbT6_GZEte665xSYFNF-77" value="" style="endArrow=none;html=1;rounded=0;exitX=0;exitY=0.5;exitDx=0;exitDy=0;entryX=1;entryY=0.5;entryDx=0;entryDy=0;" edge="1" parent="1" source="jlbT6_GZEte665xSYFNF-65" target="jlbT6_GZEte665xSYFNF-67">
          <mxGeometry relative="1" as="geometry">
            <mxPoint x="-50" y="450" as="sourcePoint" />
            <mxPoint x="-150" y="240" as="targetPoint" />
          </mxGeometry>
        </mxCell>
        <mxCell id="jlbT6_GZEte665xSYFNF-78" value="Métodos de&lt;div&gt;pagamento&lt;/div&gt;" style="ellipse;whiteSpace=wrap;html=1;align=center;" vertex="1" parent="1">
          <mxGeometry x="-120" y="69" width="100" height="40" as="geometry" />
        </mxCell>
        <mxCell id="jlbT6_GZEte665xSYFNF-79" value="" style="endArrow=none;html=1;rounded=0;exitX=0.5;exitY=1;exitDx=0;exitDy=0;entryX=1;entryY=0;entryDx=0;entryDy=0;" edge="1" parent="1" source="jlbT6_GZEte665xSYFNF-78" target="jlbT6_GZEte665xSYFNF-72">
          <mxGeometry relative="1" as="geometry">
            <mxPoint x="311" y="790" as="sourcePoint" />
            <mxPoint x="471" y="790" as="targetPoint" />
          </mxGeometry>
        </mxCell>
        <mxCell id="jlbT6_GZEte665xSYFNF-80" value="acesso&amp;nbsp;&lt;span style=&quot;background-color: transparent; color: light-dark(rgb(0, 0, 0), rgb(255, 255, 255));&quot;&gt;a&lt;/span&gt;" style="shape=rhombus;perimeter=rhombusPerimeter;whiteSpace=wrap;html=1;align=center;" vertex="1" parent="1">
          <mxGeometry x="90" y="290" width="120" height="60" as="geometry" />
        </mxCell>
        <mxCell id="jlbT6_GZEte665xSYFNF-83" value="" style="endArrow=none;html=1;rounded=0;entryX=0;entryY=0.5;entryDx=0;entryDy=0;exitX=1;exitY=0.5;exitDx=0;exitDy=0;" edge="1" parent="1" source="jlbT6_GZEte665xSYFNF-72" target="jlbT6_GZEte665xSYFNF-2">
          <mxGeometry relative="1" as="geometry">
            <mxPoint x="301" y="710" as="sourcePoint" />
            <mxPoint x="511" y="700" as="targetPoint" />
          </mxGeometry>
        </mxCell>
        <mxCell id="jlbT6_GZEte665xSYFNF-84" value="1" style="resizable=0;html=1;whiteSpace=wrap;align=right;verticalAlign=bottom;" connectable="0" vertex="1" parent="jlbT6_GZEte665xSYFNF-83">
          <mxGeometry x="1" relative="1" as="geometry" />
        </mxCell>
        <mxCell id="jlbT6_GZEte665xSYFNF-90" value="" style="endArrow=none;html=1;rounded=0;exitX=1;exitY=0.5;exitDx=0;exitDy=0;entryX=0;entryY=0.5;entryDx=0;entryDy=0;" edge="1" parent="1" source="jlbT6_GZEte665xSYFNF-80" target="jlbT6_GZEte665xSYFNF-7">
          <mxGeometry relative="1" as="geometry">
            <mxPoint x="80" y="690" as="sourcePoint" />
            <mxPoint x="240" y="690" as="targetPoint" />
          </mxGeometry>
        </mxCell>
        <mxCell id="jlbT6_GZEte665xSYFNF-92" value="" style="endArrow=none;html=1;rounded=0;entryX=0.5;entryY=0;entryDx=0;entryDy=0;exitX=0.5;exitY=1;exitDx=0;exitDy=0;" edge="1" parent="1" source="jlbT6_GZEte665xSYFNF-7" target="jlbT6_GZEte665xSYFNF-28">
          <mxGeometry relative="1" as="geometry">
            <mxPoint x="370" y="510" as="sourcePoint" />
            <mxPoint x="530" y="510" as="targetPoint" />
          </mxGeometry>
        </mxCell>
        <mxCell id="jlbT6_GZEte665xSYFNF-93" value="Indice" style="whiteSpace=wrap;html=1;align=center;" vertex="1" parent="1">
          <mxGeometry x="-241" y="1038.05" width="100" height="40" as="geometry" />
        </mxCell>
        <mxCell id="jlbT6_GZEte665xSYFNF-94" value="Empresa" style="whiteSpace=wrap;html=1;align=center;" vertex="1" parent="1">
          <mxGeometry x="-380" y="1038.05" width="100" height="40" as="geometry" />
        </mxCell>
        <mxCell id="jlbT6_GZEte665xSYFNF-95" value="Setor" style="ellipse;whiteSpace=wrap;html=1;align=center;" vertex="1" parent="1">
          <mxGeometry x="-440" y="1088.05" width="100" height="40" as="geometry" />
        </mxCell>
        <mxCell id="jlbT6_GZEte665xSYFNF-96" value="Industria" style="ellipse;whiteSpace=wrap;html=1;align=center;" vertex="1" parent="1">
          <mxGeometry x="-320" y="1088.05" width="100" height="40" as="geometry" />
        </mxCell>
        <mxCell id="jlbT6_GZEte665xSYFNF-97" value="Símbolo" style="ellipse;whiteSpace=wrap;html=1;align=center;fontStyle=4;" vertex="1" parent="1">
          <mxGeometry x="-400" y="668.05" width="100" height="40" as="geometry" />
        </mxCell>
        <mxCell id="jlbT6_GZEte665xSYFNF-98" value="Transação&lt;div&gt;(compra/venda)&lt;/div&gt;" style="whiteSpace=wrap;html=1;align=center;" vertex="1" parent="1">
          <mxGeometry x="780" y="768.05" width="100" height="40" as="geometry" />
        </mxCell>
        <mxCell id="jlbT6_GZEte665xSYFNF-99" value="Data" style="ellipse;whiteSpace=wrap;html=1;align=center;" vertex="1" parent="1">
          <mxGeometry x="910" y="718.05" width="100" height="40" as="geometry" />
        </mxCell>
        <mxCell id="jlbT6_GZEte665xSYFNF-100" value="Ativo" style="whiteSpace=wrap;html=1;align=center;" vertex="1" parent="1">
          <mxGeometry x="-180" y="768.05" width="100" height="40" as="geometry" />
        </mxCell>
        <mxCell id="jlbT6_GZEte665xSYFNF-101" value="&lt;div&gt;&lt;span style=&quot;background-color: transparent; color: light-dark(rgb(0, 0, 0), rgb(255, 255, 255));&quot;&gt;&lt;br&gt;&lt;/span&gt;&lt;/div&gt;&lt;div&gt;&lt;span style=&quot;background-color: transparent; color: light-dark(rgb(0, 0, 0), rgb(255, 255, 255));&quot;&gt;IS-A&lt;/span&gt;&lt;/div&gt;" style="triangle;whiteSpace=wrap;html=1;rotation=-90;textDirection=vertical-rl;" vertex="1" parent="1">
          <mxGeometry x="-160" y="828.05" width="60" height="80" as="geometry" />
        </mxCell>
        <mxCell id="jlbT6_GZEte665xSYFNF-102" value="" style="endArrow=none;html=1;rounded=0;exitX=0.5;exitY=1;exitDx=0;exitDy=0;entryX=1;entryY=0.5;entryDx=0;entryDy=0;" edge="1" parent="1" source="jlbT6_GZEte665xSYFNF-100" target="jlbT6_GZEte665xSYFNF-101">
          <mxGeometry relative="1" as="geometry">
            <mxPoint x="9.999999999999996" y="858.05" as="sourcePoint" />
            <mxPoint x="-120" y="868.05" as="targetPoint" />
          </mxGeometry>
        </mxCell>
        <mxCell id="jlbT6_GZEte665xSYFNF-103" value="sobre" style="shape=rhombus;perimeter=rhombusPerimeter;whiteSpace=wrap;html=1;align=center;" vertex="1" parent="1">
          <mxGeometry x="220" y="758.05" width="120" height="60" as="geometry" />
        </mxCell>
        <mxCell id="jlbT6_GZEte665xSYFNF-105" value="contém" style="shape=rhombus;perimeter=rhombusPerimeter;whiteSpace=wrap;html=1;align=center;" vertex="1" parent="1">
          <mxGeometry x="-190" y="520" width="120" height="60" as="geometry" />
        </mxCell>
        <mxCell id="jlbT6_GZEte665xSYFNF-106" value="" style="endArrow=none;html=1;rounded=0;exitX=0.5;exitY=0;exitDx=0;exitDy=0;entryX=0;entryY=0.5;entryDx=0;entryDy=0;" edge="1" parent="1" source="jlbT6_GZEte665xSYFNF-94" target="jlbT6_GZEte665xSYFNF-101">
          <mxGeometry relative="1" as="geometry">
            <mxPoint x="30" y="1078.05" as="sourcePoint" />
            <mxPoint x="190" y="1078.05" as="targetPoint" />
          </mxGeometry>
        </mxCell>
        <mxCell id="jlbT6_GZEte665xSYFNF-107" value="Matéria-prima" style="whiteSpace=wrap;html=1;align=center;" vertex="1" parent="1">
          <mxGeometry x="-3.552713678800501e-15" y="1038.05" width="100" height="40" as="geometry" />
        </mxCell>
        <mxCell id="jlbT6_GZEte665xSYFNF-108" value="" style="endArrow=none;html=1;rounded=0;exitX=0;exitY=0.5;exitDx=0;exitDy=0;entryX=0.5;entryY=0;entryDx=0;entryDy=0;" edge="1" parent="1" source="jlbT6_GZEte665xSYFNF-101" target="jlbT6_GZEte665xSYFNF-107">
          <mxGeometry relative="1" as="geometry">
            <mxPoint x="30" y="1018.05" as="sourcePoint" />
            <mxPoint x="190" y="1018.05" as="targetPoint" />
          </mxGeometry>
        </mxCell>
        <mxCell id="jlbT6_GZEte665xSYFNF-109" value="" style="endArrow=none;html=1;rounded=0;exitX=0.5;exitY=0;exitDx=0;exitDy=0;entryX=0;entryY=0.5;entryDx=0;entryDy=0;" edge="1" parent="1" source="jlbT6_GZEte665xSYFNF-93" target="jlbT6_GZEte665xSYFNF-101">
          <mxGeometry relative="1" as="geometry">
            <mxPoint x="30" y="1038.05" as="sourcePoint" />
            <mxPoint x="-120" y="918.05" as="targetPoint" />
          </mxGeometry>
        </mxCell>
        <mxCell id="jlbT6_GZEte665xSYFNF-110" value="Criptomoeda" style="whiteSpace=wrap;html=1;align=center;" vertex="1" parent="1">
          <mxGeometry x="-120" y="1038.05" width="100" height="40" as="geometry" />
        </mxCell>
        <mxCell id="jlbT6_GZEte665xSYFNF-111" value="" style="endArrow=none;html=1;rounded=0;entryX=0.5;entryY=0;entryDx=0;entryDy=0;" edge="1" parent="1" target="jlbT6_GZEte665xSYFNF-110">
          <mxGeometry relative="1" as="geometry">
            <mxPoint x="-130" y="898.05" as="sourcePoint" />
            <mxPoint x="280" y="848.05" as="targetPoint" />
          </mxGeometry>
        </mxCell>
        <mxCell id="jlbT6_GZEte665xSYFNF-114" value="" style="endArrow=none;html=1;rounded=0;entryX=0.5;entryY=1;entryDx=0;entryDy=0;exitX=0.5;exitY=0;exitDx=0;exitDy=0;" edge="1" parent="1" source="jlbT6_GZEte665xSYFNF-105" target="jlbT6_GZEte665xSYFNF-65">
          <mxGeometry relative="1" as="geometry">
            <mxPoint x="10" y="610" as="sourcePoint" />
            <mxPoint x="-60" y="530" as="targetPoint" />
          </mxGeometry>
        </mxCell>
        <mxCell id="jlbT6_GZEte665xSYFNF-115" value="N" style="resizable=0;html=1;whiteSpace=wrap;align=right;verticalAlign=bottom;" connectable="0" vertex="1" parent="jlbT6_GZEte665xSYFNF-114">
          <mxGeometry x="1" relative="1" as="geometry">
            <mxPoint x="-2" y="18" as="offset" />
          </mxGeometry>
        </mxCell>
        <mxCell id="jlbT6_GZEte665xSYFNF-116" value="" style="endArrow=none;html=1;rounded=0;entryX=0.5;entryY=0;entryDx=0;entryDy=0;exitX=0.5;exitY=1;exitDx=0;exitDy=0;" edge="1" parent="1" source="jlbT6_GZEte665xSYFNF-105" target="jlbT6_GZEte665xSYFNF-100">
          <mxGeometry relative="1" as="geometry">
            <mxPoint x="-60" y="628.05" as="sourcePoint" />
            <mxPoint x="100.00000000000001" y="628.05" as="targetPoint" />
          </mxGeometry>
        </mxCell>
        <mxCell id="jlbT6_GZEte665xSYFNF-117" value="M" style="resizable=0;html=1;whiteSpace=wrap;align=right;verticalAlign=bottom;" connectable="0" vertex="1" parent="jlbT6_GZEte665xSYFNF-116">
          <mxGeometry x="1" relative="1" as="geometry">
            <mxPoint x="-1" y="1" as="offset" />
          </mxGeometry>
        </mxCell>
        <mxCell id="jlbT6_GZEte665xSYFNF-118" value="" style="endArrow=none;html=1;rounded=0;entryX=0;entryY=0.5;entryDx=0;entryDy=0;exitX=1;exitY=0.5;exitDx=0;exitDy=0;" edge="1" parent="1" source="jlbT6_GZEte665xSYFNF-98" target="jlbT6_GZEte665xSYFNF-99">
          <mxGeometry relative="1" as="geometry">
            <mxPoint x="680" y="835" as="sourcePoint" />
            <mxPoint x="840" y="835" as="targetPoint" />
          </mxGeometry>
        </mxCell>
        <mxCell id="jlbT6_GZEte665xSYFNF-119" value="Valor mínimo" style="ellipse;whiteSpace=wrap;html=1;align=center;" vertex="1" parent="1">
          <mxGeometry x="-400" y="818.05" width="100" height="40" as="geometry" />
        </mxCell>
        <mxCell id="jlbT6_GZEte665xSYFNF-120" value="Valor de&amp;nbsp;&lt;div&gt;abertura&lt;/div&gt;" style="ellipse;whiteSpace=wrap;html=1;align=center;" vertex="1" parent="1">
          <mxGeometry x="-400" y="768.05" width="100" height="40" as="geometry" />
        </mxCell>
        <mxCell id="jlbT6_GZEte665xSYFNF-121" value="Valor máximo" style="ellipse;whiteSpace=wrap;html=1;align=center;" vertex="1" parent="1">
          <mxGeometry x="-400" y="868.05" width="100" height="40" as="geometry" />
        </mxCell>
        <mxCell id="jlbT6_GZEte665xSYFNF-122" value="Mudança %" style="ellipse;whiteSpace=wrap;html=1;align=center;" vertex="1" parent="1">
          <mxGeometry x="-400" y="918.05" width="100" height="40" as="geometry" />
        </mxCell>
        <mxCell id="jlbT6_GZEte665xSYFNF-123" value="" style="endArrow=none;html=1;rounded=0;exitX=1;exitY=0.5;exitDx=0;exitDy=0;entryX=0;entryY=0.5;entryDx=0;entryDy=0;" edge="1" parent="1" source="jlbT6_GZEte665xSYFNF-122" target="jlbT6_GZEte665xSYFNF-100">
          <mxGeometry relative="1" as="geometry">
            <mxPoint x="-30.000000000000004" y="768.05" as="sourcePoint" />
            <mxPoint x="130" y="768.05" as="targetPoint" />
          </mxGeometry>
        </mxCell>
        <mxCell id="jlbT6_GZEte665xSYFNF-124" value="" style="endArrow=none;html=1;rounded=0;exitX=1;exitY=0.5;exitDx=0;exitDy=0;" edge="1" parent="1" source="jlbT6_GZEte665xSYFNF-120">
          <mxGeometry relative="1" as="geometry">
            <mxPoint x="-30.000000000000004" y="768.05" as="sourcePoint" />
            <mxPoint x="-180" y="788.05" as="targetPoint" />
          </mxGeometry>
        </mxCell>
        <mxCell id="jlbT6_GZEte665xSYFNF-125" value="" style="endArrow=none;html=1;rounded=0;exitX=1;exitY=0.5;exitDx=0;exitDy=0;entryX=0;entryY=0.5;entryDx=0;entryDy=0;" edge="1" parent="1" source="jlbT6_GZEte665xSYFNF-139" target="jlbT6_GZEte665xSYFNF-100">
          <mxGeometry relative="1" as="geometry">
            <mxPoint x="-30.000000000000004" y="768.05" as="sourcePoint" />
            <mxPoint x="130" y="768.05" as="targetPoint" />
          </mxGeometry>
        </mxCell>
        <mxCell id="jlbT6_GZEte665xSYFNF-126" value="" style="endArrow=none;html=1;rounded=0;exitX=1;exitY=0.5;exitDx=0;exitDy=0;entryX=0;entryY=0.5;entryDx=0;entryDy=0;" edge="1" parent="1" source="jlbT6_GZEte665xSYFNF-97" target="jlbT6_GZEte665xSYFNF-100">
          <mxGeometry relative="1" as="geometry">
            <mxPoint x="-30.000000000000004" y="768.05" as="sourcePoint" />
            <mxPoint x="130" y="768.05" as="targetPoint" />
          </mxGeometry>
        </mxCell>
        <mxCell id="jlbT6_GZEte665xSYFNF-127" value="" style="endArrow=none;html=1;rounded=0;exitX=1;exitY=0.5;exitDx=0;exitDy=0;entryX=0;entryY=0.5;entryDx=0;entryDy=0;" edge="1" parent="1" source="jlbT6_GZEte665xSYFNF-137" target="jlbT6_GZEte665xSYFNF-100">
          <mxGeometry relative="1" as="geometry">
            <mxPoint x="-30.000000000000004" y="768.05" as="sourcePoint" />
            <mxPoint x="130" y="768.05" as="targetPoint" />
          </mxGeometry>
        </mxCell>
        <mxCell id="jlbT6_GZEte665xSYFNF-128" value="" style="endArrow=none;html=1;rounded=0;exitX=1;exitY=0.5;exitDx=0;exitDy=0;entryX=0;entryY=0.5;entryDx=0;entryDy=0;" edge="1" parent="1" source="jlbT6_GZEte665xSYFNF-121" target="jlbT6_GZEte665xSYFNF-100">
          <mxGeometry relative="1" as="geometry">
            <mxPoint x="-30.000000000000004" y="768.05" as="sourcePoint" />
            <mxPoint x="130" y="768.05" as="targetPoint" />
          </mxGeometry>
        </mxCell>
        <mxCell id="jlbT6_GZEte665xSYFNF-129" value="" style="endArrow=none;html=1;rounded=0;exitX=1;exitY=0.5;exitDx=0;exitDy=0;entryX=0;entryY=0.5;entryDx=0;entryDy=0;" edge="1" parent="1" source="jlbT6_GZEte665xSYFNF-137" target="jlbT6_GZEte665xSYFNF-100">
          <mxGeometry relative="1" as="geometry">
            <mxPoint x="-250" y="848.05" as="sourcePoint" />
            <mxPoint x="130" y="718.05" as="targetPoint" />
          </mxGeometry>
        </mxCell>
        <mxCell id="jlbT6_GZEte665xSYFNF-130" value="País" style="ellipse;whiteSpace=wrap;html=1;align=center;" vertex="1" parent="1">
          <mxGeometry x="-241" y="1128.05" width="100" height="40" as="geometry" />
        </mxCell>
        <mxCell id="jlbT6_GZEte665xSYFNF-131" value="País" style="ellipse;whiteSpace=wrap;html=1;align=center;" vertex="1" parent="1">
          <mxGeometry x="-380" y="1128.05" width="100" height="40" as="geometry" />
        </mxCell>
        <mxCell id="jlbT6_GZEte665xSYFNF-132" value="" style="endArrow=none;html=1;rounded=0;exitX=0.5;exitY=1;exitDx=0;exitDy=0;entryX=0.5;entryY=0;entryDx=0;entryDy=0;" edge="1" parent="1" source="jlbT6_GZEte665xSYFNF-93" target="jlbT6_GZEte665xSYFNF-130">
          <mxGeometry relative="1" as="geometry">
            <mxPoint x="-70" y="958.05" as="sourcePoint" />
            <mxPoint x="90" y="958.05" as="targetPoint" />
          </mxGeometry>
        </mxCell>
        <mxCell id="jlbT6_GZEte665xSYFNF-133" value="" style="endArrow=none;html=1;rounded=0;exitX=0.5;exitY=1;exitDx=0;exitDy=0;entryX=0.5;entryY=0;entryDx=0;entryDy=0;" edge="1" parent="1" source="jlbT6_GZEte665xSYFNF-94" target="jlbT6_GZEte665xSYFNF-95">
          <mxGeometry relative="1" as="geometry">
            <mxPoint x="-70" y="958.05" as="sourcePoint" />
            <mxPoint x="90" y="958.05" as="targetPoint" />
          </mxGeometry>
        </mxCell>
        <mxCell id="jlbT6_GZEte665xSYFNF-134" value="" style="endArrow=none;html=1;rounded=0;exitX=0.5;exitY=1;exitDx=0;exitDy=0;entryX=0.5;entryY=0;entryDx=0;entryDy=0;" edge="1" parent="1" source="jlbT6_GZEte665xSYFNF-94" target="jlbT6_GZEte665xSYFNF-131">
          <mxGeometry relative="1" as="geometry">
            <mxPoint x="-70" y="958.05" as="sourcePoint" />
            <mxPoint x="90" y="958.05" as="targetPoint" />
          </mxGeometry>
        </mxCell>
        <mxCell id="jlbT6_GZEte665xSYFNF-135" value="" style="endArrow=none;html=1;rounded=0;exitX=0.5;exitY=1;exitDx=0;exitDy=0;entryX=0.5;entryY=0;entryDx=0;entryDy=0;" edge="1" parent="1" source="jlbT6_GZEte665xSYFNF-94" target="jlbT6_GZEte665xSYFNF-96">
          <mxGeometry relative="1" as="geometry">
            <mxPoint x="-70" y="958.05" as="sourcePoint" />
            <mxPoint x="90" y="958.05" as="targetPoint" />
          </mxGeometry>
        </mxCell>
        <mxCell id="jlbT6_GZEte665xSYFNF-136" value="" style="endArrow=none;html=1;rounded=0;exitX=1;exitY=0.5;exitDx=0;exitDy=0;entryX=0;entryY=0.5;entryDx=0;entryDy=0;" edge="1" parent="1" source="jlbT6_GZEte665xSYFNF-139" target="jlbT6_GZEte665xSYFNF-100">
          <mxGeometry relative="1" as="geometry">
            <mxPoint x="-380" y="688.05" as="sourcePoint" />
            <mxPoint x="-180" y="788.05" as="targetPoint" />
          </mxGeometry>
        </mxCell>
        <mxCell id="jlbT6_GZEte665xSYFNF-137" value="Nome" style="ellipse;whiteSpace=wrap;html=1;align=center;fontStyle=4;" vertex="1" parent="1">
          <mxGeometry x="-400" y="618.05" width="100" height="40" as="geometry" />
        </mxCell>
        <mxCell id="jlbT6_GZEte665xSYFNF-138" value="" style="endArrow=none;html=1;rounded=0;exitX=1;exitY=0.5;exitDx=0;exitDy=0;entryX=0;entryY=0.5;entryDx=0;entryDy=0;" edge="1" parent="1" source="jlbT6_GZEte665xSYFNF-119" target="jlbT6_GZEte665xSYFNF-100">
          <mxGeometry relative="1" as="geometry">
            <mxPoint x="-380" y="688.05" as="sourcePoint" />
            <mxPoint x="-300" y="758.05" as="targetPoint" />
          </mxGeometry>
        </mxCell>
        <mxCell id="jlbT6_GZEte665xSYFNF-139" value="Preço" style="ellipse;whiteSpace=wrap;html=1;align=center;" vertex="1" parent="1">
          <mxGeometry x="-400" y="718.05" width="100" height="40" as="geometry" />
        </mxCell>
        <mxCell id="jlbT6_GZEte665xSYFNF-140" value="Volume" style="ellipse;whiteSpace=wrap;html=1;align=center;" vertex="1" parent="1">
          <mxGeometry x="-400" y="968.05" width="100" height="40" as="geometry" />
        </mxCell>
        <mxCell id="jlbT6_GZEte665xSYFNF-141" value="" style="endArrow=none;html=1;rounded=0;exitX=1;exitY=0.5;exitDx=0;exitDy=0;entryX=0;entryY=0.5;entryDx=0;entryDy=0;" edge="1" parent="1" source="jlbT6_GZEte665xSYFNF-140" target="jlbT6_GZEte665xSYFNF-100">
          <mxGeometry relative="1" as="geometry">
            <mxPoint x="-210" y="798.05" as="sourcePoint" />
            <mxPoint x="-50" y="798.05" as="targetPoint" />
          </mxGeometry>
        </mxCell>
        <mxCell id="jlbT6_GZEte665xSYFNF-142" value="Transação&lt;div&gt;ID&lt;/div&gt;" style="ellipse;whiteSpace=wrap;html=1;align=center;fontStyle=4;" vertex="1" parent="1">
          <mxGeometry x="910" y="768.05" width="100" height="40" as="geometry" />
        </mxCell>
        <mxCell id="jlbT6_GZEte665xSYFNF-143" value="" style="endArrow=none;html=1;rounded=0;entryX=1;entryY=0.5;entryDx=0;entryDy=0;exitX=0;exitY=0.5;exitDx=0;exitDy=0;" edge="1" parent="1" source="jlbT6_GZEte665xSYFNF-142" target="jlbT6_GZEte665xSYFNF-98">
          <mxGeometry relative="1" as="geometry">
            <mxPoint x="500" y="655" as="sourcePoint" />
            <mxPoint x="660" y="655" as="targetPoint" />
          </mxGeometry>
        </mxCell>
        <mxCell id="jlbT6_GZEte665xSYFNF-144" value="% da ação" style="ellipse;whiteSpace=wrap;html=1;align=center;" vertex="1" parent="1">
          <mxGeometry x="910" y="818.05" width="100" height="40" as="geometry" />
        </mxCell>
        <mxCell id="jlbT6_GZEte665xSYFNF-145" value="Nº de ações&lt;div&gt;disponíveis&lt;/div&gt;" style="ellipse;whiteSpace=wrap;html=1;align=center;" vertex="1" parent="1">
          <mxGeometry x="-400" y="568.05" width="100" height="40" as="geometry" />
        </mxCell>
        <mxCell id="jlbT6_GZEte665xSYFNF-146" value="" style="endArrow=none;html=1;rounded=0;exitX=1;exitY=0.5;exitDx=0;exitDy=0;entryX=0;entryY=0.5;entryDx=0;entryDy=0;" edge="1" parent="1" source="jlbT6_GZEte665xSYFNF-145" target="jlbT6_GZEte665xSYFNF-100">
          <mxGeometry relative="1" as="geometry">
            <mxPoint x="-110" y="768.05" as="sourcePoint" />
            <mxPoint x="50" y="768.05" as="targetPoint" />
          </mxGeometry>
        </mxCell>
        <mxCell id="jlbT6_GZEte665xSYFNF-147" value="" style="endArrow=none;html=1;rounded=0;entryX=1;entryY=0.5;entryDx=0;entryDy=0;exitX=0;exitY=0.5;exitDx=0;exitDy=0;" edge="1" parent="1" source="jlbT6_GZEte665xSYFNF-144" target="jlbT6_GZEte665xSYFNF-98">
          <mxGeometry relative="1" as="geometry">
            <mxPoint x="640" y="765" as="sourcePoint" />
            <mxPoint x="800" y="765" as="targetPoint" />
          </mxGeometry>
        </mxCell>
        <mxCell id="jlbT6_GZEte665xSYFNF-148" value="&lt;b&gt;&lt;font style=&quot;font-size: 10px;&quot;&gt;dijoint&lt;/font&gt;&lt;/b&gt;" style="text;html=1;align=center;verticalAlign=middle;resizable=0;points=[];autosize=1;strokeColor=none;fillColor=none;" vertex="1" parent="1">
          <mxGeometry x="-116" y="848.05" width="50" height="30" as="geometry" />
        </mxCell>
        <mxCell id="jlbT6_GZEte665xSYFNF-151" value="" style="endArrow=none;html=1;rounded=0;exitX=1;exitY=0.5;exitDx=0;exitDy=0;entryX=0;entryY=0.5;entryDx=0;entryDy=0;" edge="1" parent="1" source="jlbT6_GZEte665xSYFNF-100" target="jlbT6_GZEte665xSYFNF-103">
          <mxGeometry relative="1" as="geometry">
            <mxPoint x="60" y="708.05" as="sourcePoint" />
            <mxPoint x="110.00000000000001" y="788.05" as="targetPoint" />
          </mxGeometry>
        </mxCell>
        <mxCell id="jlbT6_GZEte665xSYFNF-152" value="1" style="resizable=0;html=1;whiteSpace=wrap;align=left;verticalAlign=bottom;" connectable="0" vertex="1" parent="jlbT6_GZEte665xSYFNF-151">
          <mxGeometry x="-1" relative="1" as="geometry" />
        </mxCell>
        <mxCell id="jlbT6_GZEte665xSYFNF-153" value="" style="shape=link;html=1;rounded=0;entryX=0;entryY=0.5;entryDx=0;entryDy=0;exitX=1;exitY=0.5;exitDx=0;exitDy=0;" edge="1" parent="1" source="jlbT6_GZEte665xSYFNF-103" target="jlbT6_GZEte665xSYFNF-98">
          <mxGeometry relative="1" as="geometry">
            <mxPoint x="130" y="690" as="sourcePoint" />
            <mxPoint x="290" y="690" as="targetPoint" />
          </mxGeometry>
        </mxCell>
        <mxCell id="jlbT6_GZEte665xSYFNF-154" value="N" style="resizable=0;html=1;whiteSpace=wrap;align=right;verticalAlign=bottom;" connectable="0" vertex="1" parent="jlbT6_GZEte665xSYFNF-153">
          <mxGeometry x="1" relative="1" as="geometry" />
        </mxCell>
        <mxCell id="jlbT6_GZEte665xSYFNF-155" value="atualiza" style="shape=rhombus;perimeter=rhombusPerimeter;whiteSpace=wrap;html=1;align=center;" vertex="1" parent="1">
          <mxGeometry x="210" y="538.05" width="120" height="60" as="geometry" />
        </mxCell>
        <mxCell id="jlbT6_GZEte665xSYFNF-156" value="" style="shape=link;html=1;rounded=0;entryX=0.5;entryY=0;entryDx=0;entryDy=0;exitX=0.5;exitY=1;exitDx=0;exitDy=0;" edge="1" parent="1" source="jlbT6_GZEte665xSYFNF-155" target="jlbT6_GZEte665xSYFNF-98">
          <mxGeometry relative="1" as="geometry">
            <mxPoint x="190" y="560" as="sourcePoint" />
            <mxPoint x="350" y="560" as="targetPoint" />
          </mxGeometry>
        </mxCell>
        <mxCell id="jlbT6_GZEte665xSYFNF-157" value="1" style="resizable=0;html=1;whiteSpace=wrap;align=right;verticalAlign=bottom;" connectable="0" vertex="1" parent="jlbT6_GZEte665xSYFNF-156">
          <mxGeometry x="1" relative="1" as="geometry">
            <mxPoint x="-5" y="-4" as="offset" />
          </mxGeometry>
        </mxCell>
        <mxCell id="jlbT6_GZEte665xSYFNF-159" value="&lt;span style=&quot;border-bottom: 1px dotted&quot;&gt;Ativo alvo&lt;/span&gt;" style="ellipse;whiteSpace=wrap;html=1;align=center;" vertex="1" parent="1">
          <mxGeometry x="290" y="728.05" width="100" height="40" as="geometry" />
        </mxCell>
        <mxCell id="jlbT6_GZEte665xSYFNF-161" value="" style="shape=link;html=1;rounded=0;entryX=0.5;entryY=1;entryDx=0;entryDy=0;exitX=0.5;exitY=0;exitDx=0;exitDy=0;" edge="1" parent="1" source="jlbT6_GZEte665xSYFNF-155" target="jlbT6_GZEte665xSYFNF-65">
          <mxGeometry relative="1" as="geometry">
            <mxPoint x="540" y="570" as="sourcePoint" />
            <mxPoint x="700" y="570" as="targetPoint" />
          </mxGeometry>
        </mxCell>
        <mxCell id="jlbT6_GZEte665xSYFNF-162" value="1" style="resizable=0;html=1;whiteSpace=wrap;align=right;verticalAlign=bottom;" connectable="0" vertex="1" parent="jlbT6_GZEte665xSYFNF-161">
          <mxGeometry x="1" relative="1" as="geometry">
            <mxPoint x="40" y="16" as="offset" />
          </mxGeometry>
        </mxCell>
        <mxCell id="jlbT6_GZEte665xSYFNF-163" value="" style="endArrow=none;html=1;rounded=0;entryX=0.5;entryY=0;entryDx=0;entryDy=0;exitX=0.5;exitY=1;exitDx=0;exitDy=0;" edge="1" parent="1" source="jlbT6_GZEte665xSYFNF-46" target="jlbT6_GZEte665xSYFNF-98">
          <mxGeometry relative="1" as="geometry">
            <mxPoint x="680" y="640" as="sourcePoint" />
            <mxPoint x="840" y="640" as="targetPoint" />
          </mxGeometry>
        </mxCell>
        <mxCell id="jlbT6_GZEte665xSYFNF-165" value="N" style="resizable=0;html=1;whiteSpace=wrap;align=right;verticalAlign=bottom;" connectable="0" vertex="1" parent="jlbT6_GZEte665xSYFNF-163">
          <mxGeometry x="1" relative="1" as="geometry">
            <mxPoint x="13" y="2" as="offset" />
          </mxGeometry>
        </mxCell>
        <mxCell id="jlbT6_GZEte665xSYFNF-166" value="" style="endArrow=none;html=1;rounded=0;exitX=1;exitY=0;exitDx=0;exitDy=0;entryX=0.5;entryY=1;entryDx=0;entryDy=0;" edge="1" parent="1" source="jlbT6_GZEte665xSYFNF-103" target="jlbT6_GZEte665xSYFNF-159">
          <mxGeometry relative="1" as="geometry">
            <mxPoint x="490" y="720" as="sourcePoint" />
            <mxPoint x="650" y="720" as="targetPoint" />
          </mxGeometry>
        </mxCell>
        <mxCell id="jlbT6_GZEte665xSYFNF-179" value="" style="shape=link;html=1;rounded=0;entryX=0.5;entryY=0;entryDx=0;entryDy=0;exitX=0.5;exitY=1;exitDx=0;exitDy=0;" edge="1" parent="1" source="jlbT6_GZEte665xSYFNF-72" target="jlbT6_GZEte665xSYFNF-65">
          <mxGeometry relative="1" as="geometry">
            <mxPoint x="440" y="500" as="sourcePoint" />
            <mxPoint x="600" y="500" as="targetPoint" />
          </mxGeometry>
        </mxCell>
        <mxCell id="jlbT6_GZEte665xSYFNF-181" value="N" style="resizable=0;html=1;whiteSpace=wrap;align=right;verticalAlign=bottom;" connectable="0" vertex="1" parent="jlbT6_GZEte665xSYFNF-179">
          <mxGeometry x="1" relative="1" as="geometry">
            <mxPoint x="-3" as="offset" />
          </mxGeometry>
        </mxCell>
        <mxCell id="jlbT6_GZEte665xSYFNF-182" value="" style="endArrow=none;html=1;rounded=0;entryX=1;entryY=0.5;entryDx=0;entryDy=0;exitX=0;exitY=0.5;exitDx=0;exitDy=0;" edge="1" parent="1" source="jlbT6_GZEte665xSYFNF-80" target="jlbT6_GZEte665xSYFNF-65">
          <mxGeometry relative="1" as="geometry">
            <mxPoint x="250" y="410" as="sourcePoint" />
            <mxPoint y="340" as="targetPoint" />
          </mxGeometry>
        </mxCell>
        <mxCell id="jlbT6_GZEte665xSYFNF-183" value="N" style="resizable=0;html=1;whiteSpace=wrap;align=right;verticalAlign=bottom;" connectable="0" vertex="1" parent="jlbT6_GZEte665xSYFNF-182">
          <mxGeometry x="1" relative="1" as="geometry">
            <mxPoint x="12" as="offset" />
          </mxGeometry>
        </mxCell>
      </root>
    </mxGraphModel>
  </diagram>
</mxfile>
